<svg width="37" height="37" fill="none" xmlns="http://www.w3.org/2000/svg"><g clip-path="url(#clip0)"><path d="M37 28.294H7.618a1.09 1.09 0 010-2.176h26.117V23.94H12.78l-.653-2.176h17.418l3.808-15.236H7.557L6.25 2.176H0v2.177h4.632l5.876 19.588h-2.89a3.269 3.269 0 00-3.265 3.265c0 1.8 1.464 3.265 3.265 3.265H9.98a3.268 3.268 0 003.078 4.353 3.268 3.268 0 003.077-4.353H28.48a3.268 3.268 0 003.078 4.353 3.268 3.268 0 003.077-4.353H37v-2.177zM10.169 15.235h3.52l.364 4.353h-2.579l-1.306-4.353zm10.508-2.176V8.706h3.17l-.363 4.353h-2.808zm2.626 2.176l-.363 4.353h-2.264v-4.353h2.627zM18.5 13.06h-2.807l-.363-4.353h3.17v4.353zm0 2.176v4.353h-2.263l-.363-4.353H18.5zm6.624 4.353l.363-4.353h3.447l-1.089 4.353h-2.721zm4.354-6.53h-3.81l.363-4.352h4.535l-1.088 4.353zM13.146 8.707l.362 4.353H9.517L8.21 8.706h4.936zm1.001 22.853a1.09 1.09 0 01-2.176 0c0-.6.487-1.088 1.086-1.088h.003c.6 0 1.087.488 1.087 1.088zm18.5 0a1.09 1.09 0 01-2.176 0c0-.6.487-1.088 1.086-1.088h.003c.6 0 1.087.488 1.087 1.088z" fill="#975BFA"/></g><defs><clipPath id="clip0"><path fill="#fff" d="M0 0h37v37H0z"/></clipPath></defs></svg>