<svg width="249" height="57" fill="none" xmlns="http://www.w3.org/2000/svg"><path d="M80.079 19.9h2.106v7.384h4.563V29h-6.669v-9.1zm13.915 7.15h-4.225L88.963 29h-2.158l4.056-9.1h2.08L97.01 29H94.8l-.806-1.95zm-.663-1.599l-1.443-3.484-1.443 3.484h2.886zm4.623-5.551h4.134c.988 0 1.859.19 2.613.572.763.373 1.352.901 1.768 1.586.425.685.637 1.482.637 2.392 0 .91-.212 1.707-.637 2.392-.416.685-1.005 1.218-1.768 1.599-.754.373-1.625.559-2.613.559h-4.134v-9.1zm4.03 7.371c.91 0 1.634-.251 2.171-.754.546-.511.819-1.2.819-2.067 0-.867-.273-1.551-.819-2.054-.537-.511-1.261-.767-2.171-.767h-1.924v5.642h1.924zm10.685-1.495V29h-2.106v-3.25l-3.523-5.85h2.236l2.431 4.043 2.431-4.043h2.067l-3.536 5.876zm4.546 3.328c-.356 0-.655-.121-.897-.364a1.233 1.233 0 01-.364-.91c0-.373.121-.672.364-.897a1.24 1.24 0 01.897-.351c.355 0 .654.117.897.351.242.225.364.524.364.897 0 .364-.122.667-.364.91a1.22 1.22 0 01-.897.364zm10.035-3.77h-1.456V29h-2.093v-9.1h2.093v3.679h1.508l2.392-3.679h2.223l-2.977 4.394L132.008 29h-2.392l-2.366-3.666zm10.048 3.822c-.944 0-1.798-.204-2.561-.611a4.613 4.613 0 01-1.781-1.677c-.424-.72-.637-1.525-.637-2.418 0-.893.213-1.694.637-2.405a4.583 4.583 0 011.781-1.69c.763-.407 1.617-.611 2.561-.611.945 0 1.794.204 2.548.611.754.407 1.348.97 1.781 1.69.434.71.65 1.512.65 2.405 0 .893-.216 1.699-.65 2.418a4.606 4.606 0 01-1.781 1.677c-.754.407-1.603.611-2.548.611zm0-1.794c.538 0 1.023-.121 1.456-.364a2.65 2.65 0 001.014-1.04c.252-.442.377-.945.377-1.508 0-.563-.125-1.066-.377-1.508a2.562 2.562 0 00-1.014-1.027 2.846 2.846 0 00-1.456-.377c-.537 0-1.022.126-1.456.377a2.665 2.665 0 00-1.027 1.027 3.089 3.089 0 00-.364 1.508c0 .563.122 1.066.364 1.508a2.76 2.76 0 001.027 1.04 2.93 2.93 0 001.456.364zm10.905 1.794c-.928 0-1.768-.2-2.522-.598a4.626 4.626 0 01-1.768-1.677c-.425-.72-.637-1.53-.637-2.431s.212-1.707.637-2.418a4.502 4.502 0 011.768-1.677c.754-.407 1.599-.611 2.535-.611.788 0 1.499.139 2.132.416a4.28 4.28 0 011.612 1.196l-1.352 1.248c-.616-.71-1.378-1.066-2.288-1.066-.564 0-1.066.126-1.508.377a2.632 2.632 0 00-1.04 1.027c-.243.442-.364.945-.364 1.508 0 .563.121 1.066.364 1.508a2.72 2.72 0 001.04 1.04 3.08 3.08 0 001.508.364c.91 0 1.672-.36 2.288-1.079l1.352 1.248a4.221 4.221 0 01-1.612 1.209c-.642.277-1.357.416-2.145.416zm13.41-.156l-.013-5.447-2.678 4.485h-.936l-2.678-4.381V29h-1.976v-9.1h1.742l3.406 5.655 3.354-5.655h1.742l.013 9.1h-1.976zm11.283-1.69V29h-7.046v-9.1h6.877v1.69h-4.784v1.976h4.225v1.638h-4.225v2.106h4.953zm8.656-5.694h-2.912V29h-2.08v-7.384h-2.899V19.9h7.891v1.716zm1.322-1.716h2.093v5.928l4.342-5.928h1.976V29h-2.08v-5.915L184.863 29h-1.989v-9.1zm14.2 5.434h-1.456V29h-2.093v-9.1h2.093v3.679h1.508l2.392-3.679h2.223l-2.977 4.394L201.832 29h-2.392l-2.366-3.666zm10.009 3.822c-.927 0-1.768-.2-2.522-.598a4.64 4.64 0 01-1.768-1.677c-.424-.72-.637-1.53-.637-2.431s.213-1.707.637-2.418a4.516 4.516 0 011.768-1.677c.754-.407 1.599-.611 2.535-.611.789 0 1.5.139 2.132.416a4.264 4.264 0 011.612 1.196l-1.352 1.248c-.615-.71-1.378-1.066-2.288-1.066a3 3 0 00-1.508.377 2.638 2.638 0 00-1.04 1.027 3.089 3.089 0 00-.364 1.508c0 .563.122 1.066.364 1.508a2.73 2.73 0 001.04 1.04c.442.243.945.364 1.508.364.91 0 1.673-.36 2.288-1.079l1.352 1.248a4.2 4.2 0 01-1.612 1.209c-.641.277-1.356.416-2.145.416z" fill="#5462FE"/><path d="M86.579 36.214V42h-.715v-4.576l-2.343 3.872h-.352l-2.343-3.883V42h-.715v-5.786h.792l2.453 4.169 2.497-4.169h.726zm4.213-.044c.756 0 1.335.19 1.738.572.404.374.605.931.605 1.672V42h-.748v-.902c-.176.3-.436.535-.78.704-.338.169-.741.253-1.21.253-.646 0-1.16-.154-1.54-.462-.382-.308-.573-.715-.573-1.221 0-.491.176-.887.528-1.188.36-.3.928-.451 1.705-.451h1.837v-.352c0-.499-.139-.876-.418-1.133-.278-.264-.685-.396-1.22-.396-.367 0-.72.062-1.057.187a2.586 2.586 0 00-.869.495l-.352-.583c.294-.25.646-.44 1.056-.572.411-.14.844-.209 1.298-.209zm-.275 5.269c.44 0 .818-.099 1.133-.297.316-.205.55-.499.704-.88v-.946H90.54c-.99 0-1.485.345-1.485 1.034 0 .337.129.605.385.803.257.19.616.286 1.078.286zm8.79-4.532h-3.311V42h-.781v-5.786h4.091v.693zm3.119-.737c.756 0 1.335.19 1.738.572.404.374.605.931.605 1.672V42h-.748v-.902a1.79 1.79 0 01-.781.704c-.337.169-.74.253-1.21.253-.645 0-1.158-.154-1.54-.462-.381-.308-.572-.715-.572-1.221 0-.491.176-.887.528-1.188.36-.3.928-.451 1.705-.451h1.837v-.352c0-.499-.139-.876-.418-1.133-.278-.264-.685-.396-1.221-.396a3.02 3.02 0 00-1.056.187 2.589 2.589 0 00-.869.495l-.352-.583c.294-.25.646-.44 1.056-.572.411-.14.844-.209 1.298-.209zm-.275 5.269c.44 0 .818-.099 1.133-.297.316-.205.55-.499.704-.88v-.946h-1.815c-.99 0-1.485.345-1.485 1.034 0 .337.129.605.385.803.257.19.616.286 1.078.286zm7.395-2.453c.411.095.726.26.946.495.227.235.341.52.341.858 0 .337-.117.638-.352.902-.227.264-.539.47-.935.616a3.92 3.92 0 01-1.309.209 4.4 4.4 0 01-1.232-.176 3.271 3.271 0 01-1.056-.539l.264-.583c.264.198.572.352.924.462.352.11.708.165 1.067.165.535 0 .972-.099 1.309-.297.345-.205.517-.48.517-.825 0-.308-.139-.546-.418-.715-.279-.176-.66-.264-1.144-.264h-.99v-.572h.946c.433 0 .781-.08 1.045-.242.264-.169.396-.392.396-.671 0-.308-.15-.55-.451-.726-.293-.176-.678-.264-1.155-.264-.623 0-1.239.158-1.848.473l-.22-.605a4.582 4.582 0 012.145-.539c.44 0 .836.066 1.188.198.359.125.638.304.836.539a1.2 1.2 0 01.308.814c0 .293-.103.554-.308.781-.198.227-.469.396-.814.506zm3.06-2.772h.781v4.598l3.861-4.598h.693V42h-.781v-4.598L113.31 42h-.704v-5.786zm7.573 0h.781v2.563h3.641v-2.563h.781V42h-.781v-2.552h-3.641V42h-.781v-5.786zm15.373 3.212h-1.254V42h-.781v-2.574h-1.254L130.492 42h-.935l2.079-2.981-1.914-2.805h.847l1.694 2.541h1.254v-2.541h.781v2.541h1.254l1.705-2.541h.847l-1.914 2.816 2.079 2.97h-.935l-1.782-2.574zm8.873-.077h-4.84c.044.601.275 1.089.693 1.463.418.367.946.55 1.584.55.359 0 .689-.062.99-.187.301-.132.561-.323.781-.572l.44.506a2.47 2.47 0 01-.968.704 3.214 3.214 0 01-1.265.242c-.594 0-1.122-.125-1.584-.374a2.786 2.786 0 01-1.067-1.056 2.991 2.991 0 01-.385-1.518c0-.565.121-1.07.363-1.518a2.72 2.72 0 011.012-1.045 2.85 2.85 0 011.452-.374 2.8 2.8 0 011.441.374c.425.25.759.598 1.001 1.045.242.44.363.946.363 1.518l-.011.242zm-2.794-2.508c-.557 0-1.027.18-1.408.539-.374.352-.587.814-.638 1.386h4.103c-.051-.572-.268-1.034-.649-1.386-.374-.36-.843-.539-1.408-.539zm4.534-.627h.781v2.563h3.641v-2.563h.781V42h-.781v-2.552h-3.641V42h-.781v-5.786zm9.843 5.841a3.148 3.148 0 01-1.54-.374 2.72 2.72 0 01-1.056-1.045 3.052 3.052 0 01-.385-1.529c0-.565.128-1.07.385-1.518a2.72 2.72 0 011.056-1.045 3.14 3.14 0 011.54-.374c.498 0 .942.099 1.331.297.396.19.707.473.935.847l-.583.396a1.787 1.787 0 00-.726-.638 2.113 2.113 0 00-.957-.22 2.26 2.26 0 00-1.133.286c-.33.183-.591.447-.781.792a2.46 2.46 0 00-.275 1.177c0 .447.091.843.275 1.188.19.337.451.601.781.792.337.183.715.275 1.133.275.344 0 .663-.07.957-.209.293-.14.535-.352.726-.638l.583.396c-.228.374-.539.66-.935.858a3.03 3.03 0 01-1.331.286zm5.879-2.629h-1.32V42h-.781v-5.786h.781v2.541h1.331l2.035-2.541h.847l-2.277 2.805L164.945 42h-.924l-2.134-2.574zm6.473 2.629a3.045 3.045 0 01-1.507-.374 2.813 2.813 0 01-1.056-1.056 3.002 3.002 0 01-.385-1.518c0-.565.129-1.07.385-1.518a2.733 2.733 0 011.056-1.045c.448-.25.95-.374 1.507-.374.558 0 1.06.125 1.507.374.448.25.796.598 1.045 1.045.257.447.385.953.385 1.518 0 .565-.128 1.07-.385 1.518a2.72 2.72 0 01-1.045 1.056 3.04 3.04 0 01-1.507.374zm0-.693c.411 0 .778-.092 1.1-.275.33-.19.587-.458.77-.803a2.46 2.46 0 00.275-1.177c0-.44-.091-.832-.275-1.177a1.907 1.907 0 00-.77-.792 2.118 2.118 0 00-1.1-.286c-.41 0-.781.095-1.111.286a2.008 2.008 0 00-.77.792 2.471 2.471 0 00-.275 1.177c0 .44.092.832.275 1.177.191.345.448.612.77.803.33.183.701.275 1.111.275zm4.606-5.148h.781v4.598l3.861-4.598h.693V42h-.781v-4.598L173.67 42h-.704v-5.786zm2.629-.836c-.498 0-.894-.125-1.188-.374-.293-.25-.443-.601-.451-1.056h.561c.008.286.11.517.308.693.198.169.455.253.77.253.316 0 .572-.084.77-.253a.898.898 0 00.319-.693h.561c-.007.455-.161.807-.462 1.056-.293.25-.689.374-1.188.374zm9.925 4.048h-1.32V42h-.781v-5.786h.781v2.541h1.331l2.035-2.541h.847l-2.277 2.805L188.578 42h-.924l-2.134-2.574zm6.473 2.629c-.557 0-1.06-.125-1.507-.374a2.813 2.813 0 01-1.056-1.056 2.991 2.991 0 01-.385-1.518c0-.565.128-1.07.385-1.518a2.733 2.733 0 011.056-1.045c.447-.25.95-.374 1.507-.374.557 0 1.06.125 1.507.374.447.25.796.598 1.045 1.045.257.447.385.953.385 1.518 0 .565-.128 1.07-.385 1.518-.249.447-.598.8-1.045 1.056-.447.25-.95.374-1.507.374zm0-.693a2.19 2.19 0 001.1-.275c.33-.19.587-.458.77-.803.183-.345.275-.737.275-1.177 0-.44-.092-.832-.275-1.177a1.907 1.907 0 00-.77-.792 2.12 2.12 0 00-1.1-.286c-.411 0-.781.095-1.111.286a2.002 2.002 0 00-.77.792 2.471 2.471 0 00-.275 1.177c0 .44.092.832.275 1.177.191.345.447.612.77.803.33.183.7.275 1.111.275zm7.026.693a3.15 3.15 0 01-1.54-.374 2.733 2.733 0 01-1.056-1.045 3.063 3.063 0 01-.385-1.529c0-.565.129-1.07.385-1.518a2.733 2.733 0 011.056-1.045 3.15 3.15 0 011.54-.374c.499 0 .943.099 1.331.297.396.19.708.473.935.847l-.583.396a1.774 1.774 0 00-.726-.638 2.107 2.107 0 00-.957-.22 2.26 2.26 0 00-1.133.286c-.33.183-.59.447-.781.792a2.471 2.471 0 00-.275 1.177c0 .447.092.843.275 1.188.191.337.451.601.781.792a2.34 2.34 0 001.133.275 2.2 2.2 0 00.957-.209 1.78 1.78 0 00.726-.638l.583.396c-.227.374-.539.66-.935.858-.396.19-.839.286-1.331.286zm10.247-5.841V42h-.715v-4.576l-2.343 3.872h-.352l-2.343-3.883V42h-.715v-5.786h.792l2.453 4.169 2.497-4.169h.726zm7.282 3.135h-4.84c.044.601.275 1.089.693 1.463.418.367.946.55 1.584.55.359 0 .689-.062.99-.187.301-.132.561-.323.781-.572l.44.506a2.47 2.47 0 01-.968.704 3.214 3.214 0 01-1.265.242c-.594 0-1.122-.125-1.584-.374a2.786 2.786 0 01-1.067-1.056 2.991 2.991 0 01-.385-1.518c0-.565.121-1.07.363-1.518a2.72 2.72 0 011.012-1.045 2.85 2.85 0 011.452-.374 2.8 2.8 0 011.441.374c.425.25.759.598 1.001 1.045.242.44.363.946.363 1.518l-.011.242zm-2.794-2.508c-.557 0-1.027.18-1.408.539-.374.352-.587.814-.638 1.386h4.103c-.051-.572-.268-1.034-.649-1.386-.374-.36-.843-.539-1.408-.539zm8.346.066h-2.189V42h-.781v-5.093h-2.189v-.693h5.159v.693zm1.129-.693h.781v4.598l3.861-4.598h.693V42h-.781v-4.598L223.933 42h-.704v-5.786zm9.674 3.212h-1.32V42h-.781v-5.786h.781v2.541h1.331l2.035-2.541h.847l-2.277 2.805L235.961 42h-.924l-2.134-2.574zm4.291-3.212h.781v4.598l3.861-4.598h.693V42h-.781v-4.598L237.898 42h-.704v-5.786z" fill="#8E5EFB"/><path d="M38.297 14.25c0-5.402-4.395-9.797-9.797-9.797-5.402 0-9.797 4.395-9.797 9.797v13.36h19.594V14.25zm-1.781 11.578H20.484V14.25c0-4.42 3.597-8.016 8.016-8.016 4.42 0 8.016 3.596 8.016 8.016v11.578zm9.797-21.375a9.783 9.783 0 00-6.598 2.563C37.333 3.336 33.2.891 28.5.891s-8.833 2.445-11.215 6.125a9.783 9.783 0 00-6.598-2.563c-5.4 0-9.795 4.395-9.795 9.797v27.61h1.78v14.25h5.345V41.86h7.289c-.1.279-.164.577-.164.89v8.015h1.78v5.344h5.345v-5.343h12.468v5.343h5.344v-5.343h1.781V42.75c0-.313-.064-.611-.163-.89h7.288v14.25h5.344V41.86h1.781V14.25c0-5.402-4.395-9.797-9.797-9.797zM28.5 2.672c6.384 0 11.578 5.194 11.578 11.578v15.141H16.922V14.25c0-6.384 5.194-11.578 11.578-11.578zM15.14 24.047H6.235V14.25a4.458 4.458 0 014.454-4.453 4.458 4.458 0 014.453 4.453v9.797zm-7.124 1.781h1.78v.89a.892.892 0 01-1.78 0v-.89zm-1.782 0v.89a2.675 2.675 0 002.672 2.673 2.675 2.675 0 002.672-2.672v-.89h3.563v5.342H2.67v-5.343h3.563zm10.688 7.125v-1.781h23.156v1.781h14.25v3.563H2.672v-3.563h14.25zm24.937-1.781v-5.344h3.563v.89a2.675 2.675 0 002.672 2.673 2.675 2.675 0 002.672-2.672v-.89h3.562v5.343H41.86zm5.344-5.344h1.781v.89a.892.892 0 01-1.78 0v-.89zm3.563-1.781h-8.907V14.25a4.458 4.458 0 014.453-4.453 4.458 4.458 0 014.454 4.453v9.797zM10.688 6.234c2.157 0 4.202.875 5.706 2.402a13.32 13.32 0 00-.716 1.894 6.222 6.222 0 00-4.99-2.514 6.242 6.242 0 00-6.235 6.234v9.797H2.672V14.25c0-4.42 3.596-8.016 8.015-8.016zM6.234 54.328h-1.78V41.86h1.78v12.47zm10.688-5.344v-.89c0-.492.4-.89.89-.89h21.375a.89.89 0 01.891.89v.89H16.922zm3.562 5.344h-1.78v-3.562h1.78v3.562zm17.813 0h-1.781v-3.562h1.78v3.562zm1.781-11.578v2.836c-.28-.1-.577-.164-.89-.164H17.811c-.313 0-.61.064-.89.164V42.75c0-.492.4-.89.89-.89h21.375a.89.89 0 01.891.89zm12.469 11.578h-1.781V41.86h1.78v12.47zm-13.36-14.25H2.672v-1.781h51.656v1.781h-15.14zm15.141-16.031h-1.781V14.25a6.242 6.242 0 00-6.234-6.234 6.225 6.225 0 00-4.992 2.514 13.198 13.198 0 00-.715-1.893 7.997 7.997 0 015.706-2.403c4.42 0 8.016 3.596 8.016 8.016v9.797zM23.786 10.948l11.578 11.579-1.26 1.259-11.577-11.578 1.259-1.26zm3.562-2.671l8.016 8.015-1.26 1.26-8.015-8.016 1.26-1.26zm-4.453 7.125l8.016 8.015-1.26 1.26-8.015-8.016 1.26-1.26z" fill="url(#paint0_linear)"/><defs><linearGradient id="paint0_linear" x1="28.5" y1="56.109" x2="28.5" y2=".891" gradientUnits="userSpaceOnUse"><stop stop-color="#9F57FA"/><stop offset="1" stop-color="#3A66FF"/></linearGradient></defs></svg>