<svg width="249" height="57" viewBox="0 0 249 57" fill="none" xmlns="http://www.w3.org/2000/svg">
<path d="M80.079 19.9H82.185V27.284H86.748V29H80.079V19.9ZM93.9939 27.05H89.7689L88.9629 29H86.8049L90.8609 19.9H92.9409L97.0099 29H94.7999L93.9939 27.05ZM93.3309 25.451L91.8879 21.967L90.4449 25.451H93.3309ZM97.954 19.9H102.088C103.076 19.9 103.947 20.0907 104.701 20.472C105.464 20.8447 106.053 21.3733 106.469 22.058C106.894 22.7427 107.106 23.54 107.106 24.45C107.106 25.36 106.894 26.1573 106.469 26.842C106.053 27.5267 105.464 28.0597 104.701 28.441C103.947 28.8137 103.076 29 102.088 29H97.954V19.9ZM101.984 27.271C102.894 27.271 103.618 27.0197 104.155 26.517C104.701 26.0057 104.974 25.3167 104.974 24.45C104.974 23.5833 104.701 22.8987 104.155 22.396C103.618 21.8847 102.894 21.629 101.984 21.629H100.06V27.271H101.984ZM112.669 25.776V29H110.563V25.75L107.04 19.9H109.276L111.707 23.943L114.138 19.9H116.205L112.669 25.776ZM117.215 29.104C116.859 29.104 116.56 28.9827 116.318 28.74C116.075 28.4973 115.954 28.194 115.954 27.83C115.954 27.4573 116.075 27.1583 116.318 26.933C116.56 26.699 116.859 26.582 117.215 26.582C117.57 26.582 117.869 26.699 118.112 26.933C118.354 27.1583 118.476 27.4573 118.476 27.83C118.476 28.194 118.354 28.4973 118.112 28.74C117.869 28.9827 117.57 29.104 117.215 29.104ZM127.25 25.334H125.794V29H123.701V19.9H125.794V23.579H127.302L129.694 19.9H131.917L128.94 24.294L132.008 29H129.616L127.25 25.334ZM137.298 29.156C136.354 29.156 135.5 28.9523 134.737 28.545C133.983 28.1377 133.39 27.5787 132.956 26.868C132.532 26.1487 132.319 25.3427 132.319 24.45C132.319 23.5573 132.532 22.7557 132.956 22.045C133.39 21.3257 133.983 20.7623 134.737 20.355C135.5 19.9477 136.354 19.744 137.298 19.744C138.243 19.744 139.092 19.9477 139.846 20.355C140.6 20.7623 141.194 21.3257 141.627 22.045C142.061 22.7557 142.277 23.5573 142.277 24.45C142.277 25.3427 142.061 26.1487 141.627 26.868C141.194 27.5787 140.6 28.1377 139.846 28.545C139.092 28.9523 138.243 29.156 137.298 29.156ZM137.298 27.362C137.836 27.362 138.321 27.2407 138.754 26.998C139.188 26.7467 139.526 26.4 139.768 25.958C140.02 25.516 140.145 25.0133 140.145 24.45C140.145 23.8867 140.02 23.384 139.768 22.942C139.526 22.5 139.188 22.1577 138.754 21.915C138.321 21.6637 137.836 21.538 137.298 21.538C136.761 21.538 136.276 21.6637 135.842 21.915C135.409 22.1577 135.067 22.5 134.815 22.942C134.573 23.384 134.451 23.8867 134.451 24.45C134.451 25.0133 134.573 25.516 134.815 25.958C135.067 26.4 135.409 26.7467 135.842 26.998C136.276 27.2407 136.761 27.362 137.298 27.362ZM148.203 29.156C147.275 29.156 146.435 28.9567 145.681 28.558C144.935 28.1507 144.346 27.5917 143.913 26.881C143.488 26.1617 143.276 25.3513 143.276 24.45C143.276 23.5487 143.488 22.7427 143.913 22.032C144.346 21.3127 144.935 20.7537 145.681 20.355C146.435 19.9477 147.28 19.744 148.216 19.744C149.004 19.744 149.715 19.8827 150.348 20.16C150.989 20.4373 151.526 20.836 151.96 21.356L150.608 22.604C149.992 21.8933 149.23 21.538 148.32 21.538C147.756 21.538 147.254 21.6637 146.812 21.915C146.37 22.1577 146.023 22.5 145.772 22.942C145.529 23.384 145.408 23.8867 145.408 24.45C145.408 25.0133 145.529 25.516 145.772 25.958C146.023 26.4 146.37 26.7467 146.812 26.998C147.254 27.2407 147.756 27.362 148.32 27.362C149.23 27.362 149.992 27.0023 150.608 26.283L151.96 27.531C151.526 28.0597 150.989 28.4627 150.348 28.74C149.706 29.0173 148.991 29.156 148.203 29.156ZM161.613 29L161.6 23.553L158.922 28.038H157.986L155.308 23.657V29H153.332V19.9H155.074L158.48 25.555L161.834 19.9H163.576L163.589 29H161.613ZM172.896 27.31V29H165.85V19.9H172.727V21.59H167.943V23.566H172.168V25.204H167.943V27.31H172.896ZM181.552 21.616H178.64V29H176.56V21.616H173.661V19.9H181.552V21.616ZM182.874 19.9H184.967V25.828L189.309 19.9H191.285V29H189.205V23.085L184.863 29H182.874V19.9ZM197.074 25.334H195.618V29H193.525V19.9H195.618V23.579H197.126L199.518 19.9H201.741L198.764 24.294L201.832 29H199.44L197.074 25.334ZM207.083 29.156C206.156 29.156 205.315 28.9567 204.561 28.558C203.816 28.1507 203.227 27.5917 202.793 26.881C202.369 26.1617 202.156 25.3513 202.156 24.45C202.156 23.5487 202.369 22.7427 202.793 22.032C203.227 21.3127 203.816 20.7537 204.561 20.355C205.315 19.9477 206.16 19.744 207.096 19.744C207.885 19.744 208.596 19.8827 209.228 20.16C209.87 20.4373 210.407 20.836 210.84 21.356L209.488 22.604C208.873 21.8933 208.11 21.538 207.2 21.538C206.637 21.538 206.134 21.6637 205.692 21.915C205.25 22.1577 204.904 22.5 204.652 22.942C204.41 23.384 204.288 23.8867 204.288 24.45C204.288 25.0133 204.41 25.516 204.652 25.958C204.904 26.4 205.25 26.7467 205.692 26.998C206.134 27.2407 206.637 27.362 207.2 27.362C208.11 27.362 208.873 27.0023 209.488 26.283L210.84 27.531C210.407 28.0597 209.87 28.4627 209.228 28.74C208.587 29.0173 207.872 29.156 207.083 29.156Z" fill="white"/>
<path d="M86.579 36.214V42H85.864V37.424L83.521 41.296H83.169L80.826 37.413V42H80.111V36.214H80.903L83.356 40.383L85.853 36.214H86.579ZM90.7924 36.17C91.5478 36.17 92.1271 36.3607 92.5304 36.742C92.9338 37.116 93.1354 37.6733 93.1354 38.414V42H92.3874V41.098C92.2114 41.3987 91.9511 41.6333 91.6064 41.802C91.2691 41.9707 90.8658 42.055 90.3964 42.055C89.7511 42.055 89.2378 41.901 88.8564 41.593C88.4751 41.285 88.2844 40.878 88.2844 40.372C88.2844 39.8807 88.4604 39.4847 88.8124 39.184C89.1718 38.8833 89.7401 38.733 90.5174 38.733H92.3544V38.381C92.3544 37.8823 92.2151 37.5047 91.9364 37.248C91.6578 36.984 91.2508 36.852 90.7154 36.852C90.3488 36.852 89.9968 36.9143 89.6594 37.039C89.3221 37.1563 89.0324 37.3213 88.7904 37.534L88.4384 36.951C88.7318 36.7017 89.0838 36.511 89.4944 36.379C89.9051 36.2397 90.3378 36.17 90.7924 36.17ZM90.5174 41.439C90.9574 41.439 91.3351 41.34 91.6504 41.142C91.9658 40.9367 92.2004 40.6433 92.3544 40.262V39.316H90.5394C89.5494 39.316 89.0544 39.6607 89.0544 40.35C89.0544 40.6873 89.1828 40.955 89.4394 41.153C89.6961 41.3437 90.0554 41.439 90.5174 41.439ZM99.3065 36.907H95.9955V42H95.2145V36.214H99.3065V36.907ZM102.426 36.17C103.182 36.17 103.761 36.3607 104.164 36.742C104.568 37.116 104.769 37.6733 104.769 38.414V42H104.021V41.098C103.845 41.3987 103.585 41.6333 103.24 41.802C102.903 41.9707 102.5 42.055 102.03 42.055C101.385 42.055 100.872 41.901 100.49 41.593C100.109 41.285 99.9182 40.878 99.9182 40.372C99.9182 39.8807 100.094 39.4847 100.446 39.184C100.806 38.8833 101.374 38.733 102.151 38.733H103.988V38.381C103.988 37.8823 103.849 37.5047 103.57 37.248C103.292 36.984 102.885 36.852 102.349 36.852C101.983 36.852 101.631 36.9143 101.293 37.039C100.956 37.1563 100.666 37.3213 100.424 37.534L100.072 36.951C100.366 36.7017 100.718 36.511 101.128 36.379C101.539 36.2397 101.972 36.17 102.426 36.17ZM102.151 41.439C102.591 41.439 102.969 41.34 103.284 41.142C103.6 40.9367 103.834 40.6433 103.988 40.262V39.316H102.173C101.183 39.316 100.688 39.6607 100.688 40.35C100.688 40.6873 100.817 40.955 101.073 41.153C101.33 41.3437 101.689 41.439 102.151 41.439ZM109.546 38.986C109.957 39.0813 110.272 39.2463 110.492 39.481C110.719 39.7157 110.833 40.0017 110.833 40.339C110.833 40.6763 110.716 40.977 110.481 41.241C110.254 41.505 109.942 41.7103 109.546 41.857C109.15 41.9963 108.714 42.066 108.237 42.066C107.819 42.066 107.408 42.0073 107.005 41.89C106.602 41.7653 106.25 41.5857 105.949 41.351L106.213 40.768C106.477 40.966 106.785 41.12 107.137 41.23C107.489 41.34 107.845 41.395 108.204 41.395C108.739 41.395 109.176 41.296 109.513 41.098C109.858 40.8927 110.03 40.6177 110.03 40.273C110.03 39.965 109.891 39.7267 109.612 39.558C109.333 39.382 108.952 39.294 108.468 39.294H107.478V38.722H108.424C108.857 38.722 109.205 38.6413 109.469 38.48C109.733 38.3113 109.865 38.0877 109.865 37.809C109.865 37.501 109.715 37.259 109.414 37.083C109.121 36.907 108.736 36.819 108.259 36.819C107.636 36.819 107.02 36.9767 106.411 37.292L106.191 36.687C106.88 36.3277 107.595 36.148 108.336 36.148C108.776 36.148 109.172 36.214 109.524 36.346C109.883 36.4707 110.162 36.6503 110.36 36.885C110.565 37.1197 110.668 37.391 110.668 37.699C110.668 37.9923 110.565 38.2527 110.36 38.48C110.162 38.7073 109.891 38.876 109.546 38.986ZM112.606 36.214H113.387V40.812L117.248 36.214H117.941V42H117.16V37.402L113.31 42H112.606V36.214ZM120.179 36.214H120.96V38.777H124.601V36.214H125.382V42H124.601V39.448H120.96V42H120.179V36.214ZM135.552 39.426H134.298V42H133.517V39.426H132.263L130.492 42H129.557L131.636 39.019L129.722 36.214H130.569L132.263 38.755H133.517V36.214H134.298V38.755H135.552L137.257 36.214H138.104L136.19 39.03L138.269 42H137.334L135.552 39.426ZM144.425 39.349H139.585C139.629 39.9503 139.86 40.438 140.278 40.812C140.696 41.1787 141.224 41.362 141.862 41.362C142.221 41.362 142.551 41.2997 142.852 41.175C143.153 41.043 143.413 40.8523 143.633 40.603L144.073 41.109C143.816 41.417 143.494 41.6517 143.105 41.813C142.724 41.9743 142.302 42.055 141.84 42.055C141.246 42.055 140.718 41.9303 140.256 41.681C139.801 41.4243 139.446 41.0723 139.189 40.625C138.932 40.1777 138.804 39.6717 138.804 39.107C138.804 38.5423 138.925 38.0363 139.167 37.589C139.416 37.1417 139.754 36.7933 140.179 36.544C140.612 36.2947 141.096 36.17 141.631 36.17C142.166 36.17 142.647 36.2947 143.072 36.544C143.497 36.7933 143.831 37.1417 144.073 37.589C144.315 38.029 144.436 38.535 144.436 39.107L144.425 39.349ZM141.631 36.841C141.074 36.841 140.604 37.0207 140.223 37.38C139.849 37.732 139.636 38.194 139.585 38.766H143.688C143.637 38.194 143.42 37.732 143.039 37.38C142.665 37.0207 142.196 36.841 141.631 36.841ZM146.165 36.214H146.946V38.777H150.587V36.214H151.368V42H150.587V39.448H146.946V42H146.165V36.214ZM156.008 42.055C155.436 42.055 154.922 41.9303 154.468 41.681C154.02 41.4317 153.668 41.0833 153.412 40.636C153.155 40.1813 153.027 39.6717 153.027 39.107C153.027 38.5423 153.155 38.0363 153.412 37.589C153.668 37.1417 154.02 36.7933 154.468 36.544C154.922 36.2947 155.436 36.17 156.008 36.17C156.506 36.17 156.95 36.269 157.339 36.467C157.735 36.6577 158.046 36.94 158.274 37.314L157.691 37.71C157.5 37.424 157.258 37.2113 156.965 37.072C156.671 36.9253 156.352 36.852 156.008 36.852C155.59 36.852 155.212 36.9473 154.875 37.138C154.545 37.3213 154.284 37.5853 154.094 37.93C153.91 38.2747 153.819 38.667 153.819 39.107C153.819 39.5543 153.91 39.9503 154.094 40.295C154.284 40.6323 154.545 40.8963 154.875 41.087C155.212 41.2703 155.59 41.362 156.008 41.362C156.352 41.362 156.671 41.2923 156.965 41.153C157.258 41.0137 157.5 40.801 157.691 40.515L158.274 40.911C158.046 41.285 157.735 41.571 157.339 41.769C156.943 41.9597 156.499 42.055 156.008 42.055ZM161.887 39.426H160.567V42H159.786V36.214H160.567V38.755H161.898L163.933 36.214H164.78L162.503 39.019L164.945 42H164.021L161.887 39.426ZM168.36 42.055C167.803 42.055 167.301 41.9303 166.853 41.681C166.406 41.4243 166.054 41.0723 165.797 40.625C165.541 40.1777 165.412 39.6717 165.412 39.107C165.412 38.5423 165.541 38.0363 165.797 37.589C166.054 37.1417 166.406 36.7933 166.853 36.544C167.301 36.2947 167.803 36.17 168.36 36.17C168.918 36.17 169.42 36.2947 169.867 36.544C170.315 36.7933 170.663 37.1417 170.912 37.589C171.169 38.0363 171.297 38.5423 171.297 39.107C171.297 39.6717 171.169 40.1777 170.912 40.625C170.663 41.0723 170.315 41.4243 169.867 41.681C169.42 41.9303 168.918 42.055 168.36 42.055ZM168.36 41.362C168.771 41.362 169.138 41.2703 169.46 41.087C169.79 40.8963 170.047 40.6287 170.23 40.284C170.414 39.9393 170.505 39.547 170.505 39.107C170.505 38.667 170.414 38.2747 170.23 37.93C170.047 37.5853 169.79 37.3213 169.46 37.138C169.138 36.9473 168.771 36.852 168.36 36.852C167.95 36.852 167.579 36.9473 167.249 37.138C166.927 37.3213 166.67 37.5853 166.479 37.93C166.296 38.2747 166.204 38.667 166.204 39.107C166.204 39.547 166.296 39.9393 166.479 40.284C166.67 40.6287 166.927 40.8963 167.249 41.087C167.579 41.2703 167.95 41.362 168.36 41.362ZM172.966 36.214H173.747V40.812L177.608 36.214H178.301V42H177.52V37.402L173.67 42H172.966V36.214ZM175.595 35.378C175.097 35.378 174.701 35.2533 174.407 35.004C174.114 34.7547 173.964 34.4027 173.956 33.948H174.517C174.525 34.234 174.627 34.465 174.825 34.641C175.023 34.8097 175.28 34.894 175.595 34.894C175.911 34.894 176.167 34.8097 176.365 34.641C176.571 34.465 176.677 34.234 176.684 33.948H177.245C177.238 34.4027 177.084 34.7547 176.783 35.004C176.49 35.2533 176.094 35.378 175.595 35.378ZM185.52 39.426H184.2V42H183.419V36.214H184.2V38.755H185.531L187.566 36.214H188.413L186.136 39.019L188.578 42H187.654L185.52 39.426ZM191.993 42.055C191.436 42.055 190.933 41.9303 190.486 41.681C190.039 41.4243 189.687 41.0723 189.43 40.625C189.173 40.1777 189.045 39.6717 189.045 39.107C189.045 38.5423 189.173 38.0363 189.43 37.589C189.687 37.1417 190.039 36.7933 190.486 36.544C190.933 36.2947 191.436 36.17 191.993 36.17C192.55 36.17 193.053 36.2947 193.5 36.544C193.947 36.7933 194.296 37.1417 194.545 37.589C194.802 38.0363 194.93 38.5423 194.93 39.107C194.93 39.6717 194.802 40.1777 194.545 40.625C194.296 41.0723 193.947 41.4243 193.5 41.681C193.053 41.9303 192.55 42.055 191.993 42.055ZM191.993 41.362C192.404 41.362 192.77 41.2703 193.093 41.087C193.423 40.8963 193.68 40.6287 193.863 40.284C194.046 39.9393 194.138 39.547 194.138 39.107C194.138 38.667 194.046 38.2747 193.863 37.93C193.68 37.5853 193.423 37.3213 193.093 37.138C192.77 36.9473 192.404 36.852 191.993 36.852C191.582 36.852 191.212 36.9473 190.882 37.138C190.559 37.3213 190.303 37.5853 190.112 37.93C189.929 38.2747 189.837 38.667 189.837 39.107C189.837 39.547 189.929 39.9393 190.112 40.284C190.303 40.6287 190.559 40.8963 190.882 41.087C191.212 41.2703 191.582 41.362 191.993 41.362ZM199.019 42.055C198.447 42.055 197.934 41.9303 197.479 41.681C197.032 41.4317 196.68 41.0833 196.423 40.636C196.167 40.1813 196.038 39.6717 196.038 39.107C196.038 38.5423 196.167 38.0363 196.423 37.589C196.68 37.1417 197.032 36.7933 197.479 36.544C197.934 36.2947 198.447 36.17 199.019 36.17C199.518 36.17 199.962 36.269 200.35 36.467C200.746 36.6577 201.058 36.94 201.285 37.314L200.702 37.71C200.512 37.424 200.27 37.2113 199.976 37.072C199.683 36.9253 199.364 36.852 199.019 36.852C198.601 36.852 198.224 36.9473 197.886 37.138C197.556 37.3213 197.296 37.5853 197.105 37.93C196.922 38.2747 196.83 38.667 196.83 39.107C196.83 39.5543 196.922 39.9503 197.105 40.295C197.296 40.6323 197.556 40.8963 197.886 41.087C198.224 41.2703 198.601 41.362 199.019 41.362C199.364 41.362 199.683 41.2923 199.976 41.153C200.27 41.0137 200.512 40.801 200.702 40.515L201.285 40.911C201.058 41.285 200.746 41.571 200.35 41.769C199.954 41.9597 199.511 42.055 199.019 42.055ZM209.266 36.214V42H208.551V37.424L206.208 41.296H205.856L203.513 37.413V42H202.798V36.214H203.59L206.043 40.383L208.54 36.214H209.266ZM216.548 39.349H211.708C211.752 39.9503 211.983 40.438 212.401 40.812C212.819 41.1787 213.347 41.362 213.985 41.362C214.344 41.362 214.674 41.2997 214.975 41.175C215.276 41.043 215.536 40.8523 215.756 40.603L216.196 41.109C215.939 41.417 215.617 41.6517 215.228 41.813C214.847 41.9743 214.425 42.055 213.963 42.055C213.369 42.055 212.841 41.9303 212.379 41.681C211.924 41.4243 211.569 41.0723 211.312 40.625C211.055 40.1777 210.927 39.6717 210.927 39.107C210.927 38.5423 211.048 38.0363 211.29 37.589C211.539 37.1417 211.877 36.7933 212.302 36.544C212.735 36.2947 213.219 36.17 213.754 36.17C214.289 36.17 214.77 36.2947 215.195 36.544C215.62 36.7933 215.954 37.1417 216.196 37.589C216.438 38.029 216.559 38.535 216.559 39.107L216.548 39.349ZM213.754 36.841C213.197 36.841 212.727 37.0207 212.346 37.38C211.972 37.732 211.759 38.194 211.708 38.766H215.811C215.76 38.194 215.543 37.732 215.162 37.38C214.788 37.0207 214.319 36.841 213.754 36.841ZM222.1 36.907H219.911V42H219.13V36.907H216.941V36.214H222.1V36.907ZM223.229 36.214H224.01V40.812L227.871 36.214H228.564V42H227.783V37.402L223.933 42H223.229V36.214ZM232.903 39.426H231.583V42H230.802V36.214H231.583V38.755H232.914L234.949 36.214H235.796L233.519 39.019L235.961 42H235.037L232.903 39.426ZM237.194 36.214H237.975V40.812L241.836 36.214H242.529V42H241.748V37.402L237.898 42H237.194V36.214Z" fill="white"/>
<path d="M38.2969 14.25C38.2969 8.84836 33.9016 4.45312 28.5 4.45312C23.0984 4.45312 18.7031 8.84836 18.7031 14.25V27.6094H38.2969V14.25ZM36.5156 25.8281H20.4844V14.25C20.4844 9.82983 24.0807 6.23438 28.5 6.23438C32.9193 6.23438 36.5156 9.82983 36.5156 14.25V25.8281ZM46.3125 4.45312C43.8535 4.45312 41.5103 5.37848 39.7147 7.01634C37.3332 3.33628 33.2007 0.890625 28.5 0.890625C23.7993 0.890625 19.6668 3.33628 17.2853 7.01634C15.4898 5.37848 13.1465 4.45312 10.6875 4.45312C5.28586 4.45312 0.890625 8.84836 0.890625 14.25V41.8594H2.67188V56.1094H8.01562V41.8594H15.3045C15.2048 42.139 15.1406 42.4365 15.1406 42.75V48.0938V49.875V50.7656H16.9219V56.1094H22.2656V50.7656H34.7344V56.1094H40.0781V50.7656H41.8594V49.875V48.0938V42.75C41.8594 42.4365 41.7952 42.139 41.6955 41.8594H48.9844V56.1094H54.3281V41.8594H56.1094V14.25C56.1094 8.84836 51.7141 4.45312 46.3125 4.45312ZM28.5 2.67188C34.884 2.67188 40.0781 7.866 40.0781 14.25V24.9375V29.3906H16.9219V24.9375V14.25C16.9219 7.866 22.116 2.67188 28.5 2.67188ZM15.1406 24.0469H6.23438V14.25C6.23438 11.7945 8.23205 9.79688 10.6875 9.79688C13.143 9.79688 15.1406 11.7945 15.1406 14.25V24.0469ZM8.01562 25.8281H9.79688V26.7188C9.79688 27.2104 9.39698 27.6094 8.90625 27.6094C8.41552 27.6094 8.01562 27.2104 8.01562 26.7188V25.8281ZM6.23438 25.8281V26.7188C6.23438 28.1918 7.43316 29.3906 8.90625 29.3906C10.3793 29.3906 11.5781 28.1918 11.5781 26.7188V25.8281H15.1406V30.2812V31.1719H2.67188V25.8281H6.23438ZM16.9219 32.9531V31.1719H40.0781V32.9531H54.3281V36.5156H2.67188V32.9531H16.9219ZM41.8594 31.1719V30.2812V25.8281H45.4219V26.7188C45.4219 28.1918 46.6207 29.3906 48.0938 29.3906C49.5668 29.3906 50.7656 28.1918 50.7656 26.7188V25.8281H54.3281V31.1719H41.8594ZM47.2031 25.8281H48.9844V26.7188C48.9844 27.2104 48.5845 27.6094 48.0938 27.6094C47.603 27.6094 47.2031 27.2104 47.2031 26.7188V25.8281ZM50.7656 24.0469H41.8594V14.25C41.8594 11.7945 43.857 9.79688 46.3125 9.79688C48.768 9.79688 50.7656 11.7945 50.7656 14.25V24.0469ZM10.6875 6.23438C12.8446 6.23438 14.8904 7.10897 16.3937 8.63639C16.1105 9.24558 15.8683 9.87525 15.6777 10.5299C14.5403 9.00778 12.7297 8.01562 10.6875 8.01562C7.24969 8.01562 4.45312 10.8131 4.45312 14.25V24.0469H2.67188V14.25C2.67188 9.82983 6.26822 6.23438 10.6875 6.23438ZM6.23438 54.3281H4.45312V41.8594H6.23438V54.3281ZM16.9219 48.9844V48.0938C16.9219 47.6021 17.3218 47.2031 17.8125 47.2031H39.1875C39.6782 47.2031 40.0781 47.6021 40.0781 48.0938V48.9844H16.9219ZM20.4844 54.3281H18.7031V50.7656H20.4844V54.3281ZM38.2969 54.3281H36.5156V50.7656H38.2969V54.3281ZM40.0781 42.75V45.5857C39.7985 45.486 39.501 45.4219 39.1875 45.4219H17.8125C17.499 45.4219 17.2015 45.486 16.9219 45.5857V42.75C16.9219 42.2584 17.3218 41.8594 17.8125 41.8594H39.1875C39.6782 41.8594 40.0781 42.2584 40.0781 42.75ZM52.5469 54.3281H50.7656V41.8594H52.5469V54.3281ZM39.1875 40.0781H17.8125H2.67188V38.2969H54.3281V40.0781H39.1875ZM54.3281 24.0469H52.5469V14.25C52.5469 10.8131 49.7503 8.01562 46.3125 8.01562C44.2703 8.01562 42.4597 9.00778 41.3214 10.5299C41.1317 9.87614 40.8895 9.24558 40.6063 8.63728C42.1096 7.10897 44.1545 6.23438 46.3125 6.23438C50.7318 6.23438 54.3281 9.82983 54.3281 14.25V24.0469ZM23.7859 10.9485L35.364 22.5266L34.1047 23.7859L22.5266 12.2078L23.7859 10.9485ZM27.3484 8.27658L35.364 16.2922L34.1047 17.5515L26.0891 9.53592L27.3484 8.27658ZM22.8953 15.4016L30.9109 23.4172L29.6516 24.6765L21.636 16.6609L22.8953 15.4016Z" fill="url(#paint0_linear)"/>
<defs>
<linearGradient id="paint0_linear" x1="28.5" y1="56.1094" x2="28.5" y2="0.890625" gradientUnits="userSpaceOnUse">
<stop stop-color="white"/>
<stop offset="1" stop-color="#3A66FF"/>
</linearGradient>
</defs>
</svg>
