<?xml version="1.0" standalone="no"?>
<!DOCTYPE svg PUBLIC "-//W3C//DTD SVG 20010904//EN"
 "http://www.w3.org/TR/2001/REC-SVG-20010904/DTD/svg10.dtd">
<svg version="1.0" xmlns="http://www.w3.org/2000/svg"
 width="700.000000pt" height="700.000000pt" viewBox="0 0 700.000000 700.000000"
 preserveAspectRatio="xMidYMid meet">
<metadata>
Created by potrace 1.14, written by Peter Selinger 2001-2017
</metadata>
<g transform="translate(0.000000,700.000000) scale(0.100000,-0.100000)"
fill="#000000" stroke="none">
<path d="M2569 6886 c-2 -2 -30 -6 -62 -10 -156 -16 -363 -76 -521 -150 -221
-103 -401 -241 -591 -451 -51 -57 -176 -246 -224 -340 -209 -410 -243 -889
-95 -1331 52 -156 102 -254 288 -564 91 -151 164 -275 163 -276 -1 -1 -38 -5
-82 -8 -44 -4 -87 -9 -95 -11 -8 -2 -31 -7 -50 -10 -46 -8 -142 -41 -194 -67
-127 -65 -211 -145 -344 -328 -46 -63 -119 -164 -163 -225 -44 -60 -88 -121
-97 -134 -9 -12 -31 -42 -48 -65 -130 -175 -272 -378 -290 -417 -83 -170 -67
-387 40 -546 14 -21 316 -328 670 -683 l645 -645 -63 -255 -63 -255 1340 -3
c737 -1 1341 -1 1342 0 1 2 -37 161 -86 354 -82 326 -120 509 -134 644 -4 30
-8 69 -11 85 -2 17 -7 93 -10 170 l-6 141 47 94 c26 52 63 134 81 181 36 95
82 300 86 392 l3 58 44 -48 c24 -26 83 -90 130 -142 47 -52 93 -102 101 -111
8 -9 80 -87 160 -175 80 -88 154 -169 165 -180 11 -12 49 -54 85 -94 168 -189
346 -274 570 -274 120 0 198 18 305 67 220 103 375 316 403 556 4 36 7 565 7
1175 -1 872 -4 1119 -14 1150 -13 40 -12 43 37 135 127 239 184 461 197 765 7
185 50 319 141 447 55 77 61 83 304 285 129 108 243 203 253 213 17 16 11 22
-120 130 -76 63 -140 117 -143 120 -20 23 -208 171 -263 208 -96 62 -236 126
-342 156 -149 42 -215 51 -375 51 -214 0 -281 -15 -580 -124 -47 -18 -87 -31
-90 -31 -3 0 -25 -4 -50 -10 -242 -57 -500 -60 -735 -10 -120 27 -181 46 -570
188 -425 154 -423 154 -655 198 -37 7 -435 16 -441 10z m426 -232 c44 -7 94
-16 110 -19 42 -8 166 -44 190 -55 80 -36 735 -265 813 -284 177 -44 328 -63
482 -60 252 4 433 39 687 132 268 99 516 107 763 25 169 -56 285 -132 532
-347 l37 -33 -127 -104 c-212 -174 -287 -259 -365 -414 -71 -142 -93 -239
-102 -450 -3 -66 -7 -131 -10 -145 -2 -14 -7 -45 -10 -70 -14 -101 -61 -252
-116 -371 l-31 -68 -40 25 c-169 107 -398 82 -536 -59 -50 -51 -112 -153 -112
-183 0 -16 -15 -30 -57 -55 -114 -64 -174 -159 -178 -283 -1 -39 4 -88 12
-110 7 -21 13 -40 13 -41 0 -5 -42 -15 -333 -79 l-279 -63 -44 34 c-132 101
-296 160 -494 178 -36 3 -81 8 -100 10 -19 2 -60 6 -90 9 -30 3 -80 8 -110 11
-30 3 -71 7 -90 9 -139 14 -172 20 -195 38 -32 25 -47 79 -43 153 l3 60 70 8
c145 15 274 77 380 182 118 116 155 187 200 390 1 6 36 26 76 46 70 34 100 42
210 55 135 15 269 49 382 95 68 28 207 109 235 136 7 7 17 13 22 13 20 0 194
188 243 263 30 45 74 114 100 152 159 244 430 396 732 410 39 2 73 4 76 4 10
1 6 206 -4 212 -10 7 -113 3 -187 -6 -305 -40 -585 -206 -771 -455 -14 -19
-52 -78 -85 -130 -78 -127 -152 -210 -255 -288 -95 -72 -267 -148 -370 -166
-80 -14 -181 -27 -184 -24 -3 3 -8 40 -20 138 -11 86 -45 236 -83 368 l-39
132 26 1 c85 4 197 32 297 75 75 33 84 39 78 58 -8 26 -83 176 -88 176 -2 0
-32 -13 -67 -29 -100 -45 -170 -60 -282 -59 -127 1 -179 16 -405 119 -37 17
-80 37 -97 44 -16 7 -52 23 -80 35 -27 12 -75 34 -105 47 -30 13 -68 31 -85
38 -145 66 -290 126 -326 136 -67 18 -194 13 -270 -10 -170 -53 -304 -199
-343 -373 -8 -35 -17 -92 -21 -128 -4 -36 -9 -74 -11 -85 -2 -11 -6 -45 -10
-75 -3 -30 -9 -84 -14 -120 -5 -36 -10 -70 -10 -75 0 -6 -15 -17 -34 -23 -54
-20 -132 -96 -163 -160 -25 -50 -28 -68 -27 -147 1 -118 27 -175 134 -288 l78
-82 0 -380 c0 -407 -1 -417 -51 -449 -23 -16 -114 -29 -206 -30 l-55 -1 -198
330 c-257 429 -314 564 -352 838 -13 95 -14 292 -2 373 3 21 8 57 12 79 30
207 145 469 288 655 250 325 577 517 1001 588 81 14 391 11 480 -4z m-250
-656 c26 -10 318 -138 430 -188 22 -10 87 -39 145 -65 58 -26 125 -56 150 -68
25 -11 79 -32 120 -47 l75 -28 43 -138 c23 -77 47 -152 52 -169 5 -16 12 -48
16 -70 3 -22 8 -43 9 -46 2 -3 7 -28 11 -55 3 -27 8 -52 10 -55 1 -3 6 -35 9
-71 4 -35 8 -77 9 -92 3 -26 -3 -31 -98 -77 -55 -28 -104 -53 -107 -57 -4 -4
-9 -42 -12 -84 -3 -42 -8 -81 -11 -86 -3 -5 -58 -8 -123 -7 -97 2 -127 6 -170
25 -49 21 -124 88 -135 120 -3 11 -29 2 -101 -35 -53 -28 -97 -53 -97 -58 0
-17 59 -94 109 -140 28 -27 84 -64 124 -83 65 -31 102 -39 207 -49 19 -2 37
-4 40 -5 3 0 -20 -16 -50 -36 -94 -60 -135 -67 -405 -68 -132 -1 -245 -4 -250
-8 -6 -4 -10 -49 -10 -110 l0 -103 108 1 c73 1 107 -2 108 -10 0 -6 2 -52 3
-102 5 -147 58 -239 174 -304 l42 -24 0 -85 c0 -171 -49 -291 -165 -407 -102
-102 -218 -153 -358 -158 -203 -7 -386 93 -492 269 -55 93 -73 166 -78 327 -2
55 -1 58 26 68 66 22 147 110 177 190 10 27 14 141 16 485 l2 450 -98 100
c-102 104 -120 132 -120 192 0 28 8 43 35 69 32 30 42 33 103 36 l67 3 6 45
c4 25 10 72 13 105 10 90 17 147 21 175 2 14 11 81 20 150 22 180 23 182 40
222 55 133 225 206 360 156z m2920 -1750 c46 -24 87 -62 107 -101 l23 -42 0
-1115 c1 -613 -3 -1137 -8 -1165 -14 -81 -70 -186 -135 -252 -155 -157 -384
-193 -584 -92 -62 31 -132 96 -279 258 -52 58 -101 112 -109 121 -8 9 -55 61
-105 116 -49 54 -109 119 -131 144 -75 80 -98 106 -174 190 -41 46 -105 115
-141 154 -110 119 -126 140 -133 176 -4 19 -11 44 -15 55 -10 25 -100 261
-112 295 -5 14 -11 41 -14 60 -3 19 -10 52 -15 74 -5 21 -9 121 -10 223 l-1
185 43 -6 c103 -14 213 -63 301 -132 33 -25 167 -177 329 -371 150 -180 277
-333 283 -339 5 -6 26 -30 45 -54 19 -24 51 -62 70 -85 43 -50 98 -116 179
-213 l61 -74 0 -199 0 -199 110 0 110 0 0 842 0 841 -104 107 c-108 111 -124
140 -111 200 7 32 46 79 68 81 15 2 94 7 125 8 21 1 22 5 22 69 0 37 5 84 11
105 18 65 84 126 159 147 31 9 108 2 135 -12z m-3775 -958 c37 -124 93 -221
181 -315 l48 -50 -20 -70 c-45 -162 -3 -322 116 -434 151 -143 373 -164 540
-50 126 85 196 216 196 368 l0 68 42 23 c172 96 310 265 361 442 25 84 27 95
34 201 4 53 12 98 17 98 30 4 192 -15 199 -22 3 -3 6 -90 6 -194 1 -105 5
-210 10 -234 7 -39 5 -45 -18 -65 -195 -161 -262 -416 -168 -641 28 -67 95
-157 152 -205 56 -46 175 -110 206 -110 10 0 18 -7 18 -15 0 -17 -31 -147 -36
-154 -2 -2 -21 11 -44 29 -48 38 -140 84 -201 100 -59 16 -173 20 -239 8 -93
-16 -210 -79 -284 -153 -66 -66 -129 -173 -142 -241 l-6 -34 -389 0 c-214 0
-389 2 -389 4 0 3 6 11 13 18 15 16 62 119 78 173 15 49 19 189 7 234 -5 18
-11 43 -14 55 -2 11 -19 53 -39 92 -83 169 -267 289 -455 297 l-64 3 -32 59
-33 60 24 95 c13 52 26 106 28 120 3 14 10 54 17 88 19 109 21 131 26 367 3
127 6 234 8 239 2 11 14 13 121 22 44 3 82 9 85 11 3 3 8 -44 11 -104 4 -65
16 -138 29 -183z m-469 213 c4 -152 -4 -385 -16 -462 -3 -13 -7 -45 -11 -70
-3 -25 -19 -100 -35 -165 l-30 -120 -167 -168 c-92 -92 -171 -168 -177 -168
-5 0 -40 30 -77 67 l-67 67 -77 -79 -76 -78 453 -453 452 -452 96 -1 c145 -2
171 -28 171 -177 l0 -90 36 -35 c48 -46 67 -84 70 -144 4 -84 -34 -148 -110
-187 -46 -23 -119 -26 -167 -5 -21 9 -274 254 -667 647 -719 720 -687 681
-687 835 0 75 4 97 24 135 46 88 673 940 729 991 81 74 218 136 305 138 23 1
27 -3 28 -26z m3719 -470 c0 -275 -3 -423 -10 -423 -5 0 -10 3 -10 8 0 4 -12
21 -26 37 -36 42 -42 50 -199 239 -77 92 -195 234 -262 314 -67 81 -121 147
-120 148 2 2 383 88 442 100 11 2 47 12 80 23 59 18 60 18 83 -2 l22 -20 0
-424z m-1442 -199 c-4 -3 4 -29 16 -57 53 -121 89 -246 102 -352 4 -33 8 -67
9 -75 4 -28 -6 -30 -44 -11 -140 72 -209 265 -145 409 23 52 50 92 62 92 3 0
3 -3 0 -6z m-1296 -65 c75 -24 133 -32 243 -33 l90 -1 -3 -30 c-8 -68 -60
-138 -131 -171 -39 -19 -122 -21 -162 -6 -76 30 -141 125 -141 207 0 53 8 69
31 59 9 -3 42 -15 73 -25z m-942 -461 c53 -127 110 -303 129 -398 6 -30 12
-64 15 -76 2 -12 7 -45 11 -75 l6 -54 -240 240 -240 239 22 25 c69 75 231 229
238 226 4 -3 30 -60 59 -127z m314 -42 c69 -31 131 -92 165 -165 21 -45 26
-70 26 -132 0 -65 -5 -85 -33 -142 -28 -56 -77 -115 -88 -104 -2 1 -6 25 -10
52 -3 28 -8 59 -10 70 -3 11 -7 36 -10 55 -9 59 -52 221 -79 299 -25 75 -29
91 -20 91 2 0 29 -11 59 -24z m1751 -437 c27 -12 73 -46 102 -76 53 -54 53
-54 38 -83 l-16 -30 -285 0 -285 0 17 33 c43 82 116 145 204 173 54 18 167 9
225 -17z m83 -413 c3 -3 6 -32 8 -63 3 -69 13 -198 18 -233 2 -14 7 -54 10
-90 4 -36 12 -84 17 -108 5 -23 12 -59 15 -80 3 -20 7 -39 9 -42 2 -3 6 -25
10 -50 4 -25 8 -47 10 -51 2 -3 7 -19 10 -35 3 -16 22 -98 44 -181 l39 -153
-1063 0 -1063 0 27 108 27 107 75 6 c118 10 211 57 283 141 124 144 135 366
26 517 -25 34 -31 53 -34 108 -2 38 -7 76 -11 85 -6 16 8 18 182 20 303 5
1355 -1 1361 -6z"/>
<path d="M2954 5338 c14 -115 68 -202 161 -260 125 -77 304 -51 407 58 37 40
75 120 83 177 l7 47 -110 0 -110 0 -7 -29 c-21 -99 -165 -106 -203 -10 l-15
39 -108 0 c-105 0 -107 0 -105 -22z"/>
<path d="M2692 974 c-90 -38 -85 -169 9 -200 71 -24 129 16 136 93 4 41 1 54
-18 77 -30 34 -86 48 -127 30z"/>
</g>
</svg>
